Coordinates
version=1
nRows=4
nColumns=63
inDegrees=yes

Units are S.I. units (second, meters, Newtons, ...)
If the header above contains a line with 'inDegrees', this indicates whether rotational values are in degrees (yes) or radians (no).

endheader
time	pelvis_tilt	pelvis_list	pelvis_rotation	pelvis_tx	pelvis_ty	pelvis_tz	hip_flexion_r	hip_adduction_r	hip_rotation_r	knee_angle_r	knee_angle_r_beta	ankle_angle_r	subtalar_angle_r	mtp_angle_r	hip_flexion_l	hip_adduction_l	hip_rotation_l	knee_angle_l	knee_angle_l_beta	ankle_angle_l	subtalar_angle_l	mtp_angle_l	L5_S1_Flex_Ext	L5_S1_Lat_Bending	L5_S1_axial_rotation	L4_L5_Flex_Ext	L4_L5_Lat_Bending	L4_L5_axial_rotation	L3_L4_Flex_Ext	L3_L4_Lat_Bending	L3_L4_axial_rotation	L2_L3_Flex_Ext	L2_L3_Lat_Bending	L2_L3_axial_rotation	L1_L2_Flex_Ext	L1_L2_Lat_Bending	L1_L2_axial_rotation	L1_T12_Flex_Ext	L1_T12_Lat_Bending	L1_T12_axial_rotation	Abs_r3	Abs_r2	Abs_r1	Abs_t1	Abs_t2	neck_flexion	neck_bending	neck_rotation	arm_flex_r	arm_add_r	arm_rot_r	elbow_flex_r	pro_sup_r	wrist_flex_r	wrist_dev_r	arm_flex_l	arm_add_l	arm_rot_l	elbow_flex_l	pro_sup_l	wrist_flex_l	wrist_dev_l
      0.78333333	      0.10471645	     -3.57701033	     85.78411584	      0.25589081	      0.93954041	      0.59304912	      3.43487941	     -0.47825158	      1.00015755	      9.47205862	      0.16531861	     34.61985188	      1.16919733	      0.00000000	      2.49214554	      1.24873531	     -5.53264801	     10.76848698	      0.18794555	     34.98073440	      2.35384347	      0.00000000	      0.24761433	      0.05702277	      1.20737897	      0.45984457	      0.07584028	      1.28284016	      0.40680558	      0.13864515	      1.28284016	      0.28299842	      0.13864515	      1.05645660	      0.22993467	      0.11628082	      0.98099541	      0.14148683	      0.08832826	      0.90553423	      1.76868440	      0.64505293	      6.71507963	      0.00000000	      0.00000000	     16.52550918	     -1.92084135	    -13.54971941	     13.66172560	     -6.75346836	     64.71243755	     29.96957964	     55.87845660	     11.34015027	      4.55731630	     19.05902107	     -3.62919297	     85.34213340	     36.92773782	     32.64638624	    -11.55503787	    -11.92217901
      0.80000000	     -0.02636486	     -3.45806230	     85.67776464	      0.25598236	      0.93972580	      0.59307922	      3.35477573	     -0.49956472	      2.51356249	      9.55466626	      0.16676039	     34.07983906	     -1.03251845	      0.00000000	      2.24645127	      1.47581219	     -4.95526803	     10.54767624	      0.18409168	     34.45658630	      1.45614275	      0.00000000	      0.22754092	      0.03224960	      1.31283466	      0.42256624	      0.04289197	      1.39488683	      0.37382698	      0.07841167	      1.39488683	      0.26005652	      0.07841167	      1.14873033	      0.21129450	      0.06576338	      1.06667816	      0.13001688	      0.04995463	      0.98462600	      1.62530203	      0.36481390	      7.30159254	      0.00000000	      0.00000000	     15.80219510	     -2.40852701	    -14.97551915	     13.15748221	     -6.71695579	     62.07861347	     30.01200104	     60.30763513	     11.96401228	      4.30585650	     19.77690177	     -3.40224668	     87.26142922	     36.29231327	     30.74073889	     -9.37811908	    -12.27383130
      0.81666667	     -0.09751735	     -3.44294645	     85.71230147	      0.25582163	      0.93972814	      0.59303681	      3.45145790	     -0.60760645	      2.00082468	      9.87717847	      0.17238929	     34.10115516	     -0.69230118	      0.00000000	      2.23403804	      1.56223107	     -4.91415288	     10.62642770	      0.18546615	     34.30648339	      1.55097829	      0.00000000	      0.22175765	      0.02351748	      1.29668617	      0.41182613	      0.03127825	      1.37772905	      0.36432564	      0.05718040	      1.37772905	      0.25344682	      0.05718040	      1.13460040	      0.20592415	      0.04795684	      1.05355751	      0.12671232	      0.03642857	      0.97251463	      1.58399272	      0.26603442	      7.21177946	      0.00000000	      0.00000000	     15.35511615	     -2.47838591	    -14.97141146	     13.17991949	     -6.77062452	     62.23002418	     30.17818491	     60.01295419	     11.75699506	      4.40748134	     19.89709714	     -3.47875679	     87.11449854	     36.33266008	     31.19779129	     -9.30580182	    -11.66072043
      0.83333333	     -0.18378694	     -3.46452320	     85.66207230	      0.25566998	      0.93964836	      0.59296540	      3.60925941	     -0.71010974	      1.87296128	     10.25361861	      0.17895941	     34.07814453	     -0.80661481	      0.00000000	      2.18738077	      1.75511493	     -3.87279971	     10.49932576	      0.18324780	     33.91729963	      0.30353783	      0.00000000	      0.22198366	      0.01311453	      1.30816619	      0.41224585	      0.01744232	      1.38992658	      0.36469695	      0.03188666	      1.38992658	      0.25370512	      0.03188666	      1.14464542	      0.20613402	      0.02674314	      1.06288503	      0.12684146	      0.02031440	      0.98112464	      1.58560705	      0.14835414	      7.27562789	      0.00000000	      0.00000000	     14.83804637	     -2.86249754	    -15.46748406	     13.27879740	     -6.77983174	     62.44963382	     29.97415310	     61.61850425	     12.21608189	      3.19430064	     20.36514334	     -3.48434586	     88.20885659	     36.20958781	     31.07218833	     -8.72122469	    -11.47891868
